{
  "accessors": [
    {
      "bufferView": 2,
      "componentType": 5126,
      "count": 1108,
      "max": [
        0.7690590023994446,
        0.653872013092041,
        1.7149189710617065
      ],
      "min": [
        -0.7692049741744995,
        -0.09889200329780579,
        -0.14374899864196777
      ],
      "type": "VEC3"
    },
    {
      "bufferView": 2,
      "byteOffset": 13296,
      "componentType": 5126,
      "count": 1108,
      "max": [
        0.878040075302124,
        0.9907491207122803,
        0.9982872605323792
      ],
      "min": [
        -0.878040075302124,
        -0.9517703652381897,
        0.12399961054325104
      ],
      "type": "VEC3"
    },
    {
      "bufferView": 1,
      "componentType": 5126,
      "count": 1108,
      "max": [
        0.9897459745407104,
        0.994488000869751
      ],
      "min": [
        0.013473999686539173,
        0.0004879999905824661
      ],
      "type": "VEC2"
    },
    {
      "bufferView": 0,
      "componentType": 5125,
      "count": 6174,
      "type": "SCALAR"
    },
    {
      "bufferView": 2,
      "byteOffset": 26592,
      "componentType": 5126,
      "count": 1237,
      "max": [
        0.06901399791240692,
        -0.05805100128054619,
        1.8870569467544556
      ],
      "min": [
        -0.06901399791240692,
        -0.13796700537204742,
        1.7567989826202393
      ],
      "type": "VEC3"
    },
    {
      "bufferView": 2,
      "byteOffset": 41436,
      "componentType": 5126,
      "count": 1237,
      "max": [
        0.9984922409057617,
        0.9996381402015686,
        0.9999988079071045
      ],
      "min": [
        -0.9984890222549438,
        -0.9996855854988098,
        -0.9999885559082031
      ],
      "type": "VEC3"
    },
    {
      "bufferView": 3,
      "componentType": 5126,
      "count": 1237,
      "max": [
        0.9999890327453613,
        0.9998622536659241,
        0.9962522983551025,
        1.0
      ],
      "min": [
        -0.9998133182525635,
        -0.9999988079071045,
        -0.9996247887611389,
        -1.0
      ],
      "type": "VEC4"
    },
    {
      "bufferView": 1,
      "byteOffset": 8864,
      "componentType": 5126,
      "count": 1237,
      "max": [
        0.9697269797325134,
        0.9954609870910645
      ],
      "min": [
        0.023742999881505966,
        0.09423799812793732
      ],
      "type": "VEC2"
    },
    {
      "bufferView": 0,
      "byteOffset": 24696,
      "componentType": 5125,
      "count": 6270,
      "type": "SCALAR"
    },
    {
      "bufferView": 2,
      "byteOffset": 56280,
      "componentType": 5126,
      "count": 3725,
      "max": [
        0.7170450091362,
        0.17174099385738373,
        1.7078839540481567
      ],
      "min": [
        -0.7170450091362,
        -0.2706800103187561,
        1.0916670560836792
      ],
      "type": "VEC3"
    },
    {
      "bufferView": 2,
      "byteOffset": 100980,
      "componentType": 5126,
      "count": 3725,
      "max": [
        0.9999790191650391,
        0.9999630451202393,
        0.9964112639427185
      ],
      "min": [
        -0.9999790191650391,
        -0.9996271729469299,
        -0.9927021265029907
      ],
      "type": "VEC3"
    },
    {
      "bufferView": 3,
      "byteOffset": 19792,
      "componentType": 5126,
      "count": 3725,
      "max": [
        1.0,
        0.9975149631500244,
        0.9999404549598694,
        1.0
      ],
      "min": [
        -0.9998902082443237,
        -0.9999118447303772,
        -0.9999630451202393,
        -1.0
      ],
      "type": "VEC4"
    },
    {
      "bufferView": 1,
      "byteOffset": 18760,
      "componentType": 5126,
      "count": 3725,
      "max": [
        0.9980469942092896,
        0.9951440095901489
      ],
      "min": [
        0.0030590000096708536,
        0.005371000152081251
      ],
      "type": "VEC2"
    },
    {
      "bufferView": 0,
      "byteOffset": 49776,
      "componentType": 5125,
      "count": 18408,
      "type": "SCALAR"
    },
    {
      "bufferView": 2,
      "byteOffset": 145680,
      "componentType": 5126,
      "count": 276,
      "max": [
        0.046119000762701035,
        -0.08074499666690826,
        1.8918700218200684
      ],
      "min": [
        -0.046119000762701035,
        -0.10265299677848816,
        1.865028977394104
      ],
      "type": "VEC3"
    },
    {
      "bufferView": 2,
      "byteOffset": 148992,
      "componentType": 5126,
      "count": 276,
      "max": [
        1.0,
        0.5178194642066956,
        1.0
      ],
      "min": [
        -1.0,
        -1.0,
        -1.0
      ],
      "type": "VEC3"
    },
    {
      "bufferView": 1,
      "byteOffset": 48560,
      "componentType": 5126,
      "count": 276,
      "max": [
        1.0,
        0.9999179840087891
      ],
      "min": [
        3.099999958067201e-05,
        0.0
      ],
      "type": "VEC2"
    },
    {
      "bufferView": 0,
      "byteOffset": 123408,
      "componentType": 5125,
      "count": 1404,
      "type": "SCALAR"
    },
    {
      "bufferView": 2,
      "byteOffset": 152304,
      "componentType": 5126,
      "count": 6187,
      "max": [
        0.2708599865436554,
        0.17095500230789185,
        2.1125669479370117
      ],
      "min": [
        -0.2708599865436554,
        -0.18783700466156006,
        -0.003338000038638711
      ],
      "type": "VEC3"
    },
    {
      "bufferView": 2,
      "byteOffset": 226548,
      "componentType": 5126,
      "count": 6187,
      "max": [
        1.0,
        0.9999372959136963,
        0.9993373155593872
      ],
      "min": [
        -1.0,
        -0.9999831914901733,
        -0.9993976354598999
      ],
      "type": "VEC3"
    },
    {
      "bufferView": 3,
      "byteOffset": 79392,
      "componentType": 5126,
      "count": 6187,
      "max": [
        1.0,
        0.9999234080314636,
        0.9995332360267639,
        1.0
      ],
      "min": [
        -0.9999960660934448,
        -0.9999956488609314,
        -1.0,
        -1.0
      ],
      "type": "VEC4"
    },
    {
      "bufferView": 1,
      "byteOffset": 50768,
      "componentType": 5126,
      "count": 6187,
      "max": [
        0.9951170086860657,
        0.996213972568512
      ],
      "min": [
        0.004767999984323978,
        0.004883000161498785
      ],
      "type": "VEC2"
    },
    {
      "bufferView": 0,
      "byteOffset": 129024,
      "componentType": 5125,
      "count": 29826,
      "type": "SCALAR"
    }
  ],
  "asset": {
    "extras": {
      "author": "LKFisto1707 (https://sketchfab.com/LKFisto1707)",
      "license": "CC-BY-4.0 (http://creativecommons.org/licenses/by/4.0/)",
      "source": "https://sketchfab.com/3d-models/arkham-city-batman-648984b9b606483383260c25099d81b9",
      "title": "Arkham City Batman"
    },
    "generator": "Sketchfab-15.30.0",
    "version": "2.0"
  },
  "bufferViews": [
    {
      "buffer": 0,
      "byteLength": 248328,
      "name": "floatBufferViews",
      "target": 34963
    },
    {
      "buffer": 0,
      "byteLength": 100264,
      "byteOffset": 248328,
      "byteStride": 8,
      "name": "floatBufferViews",
      "target": 34962
    },
    {
      "buffer": 0,
      "byteLength": 300792,
      "byteOffset": 348592,
      "byteStride": 12,
      "name": "floatBufferViews",
      "target": 34962
    },
    {
      "buffer": 0,
      "byteLength": 178384,
      "byteOffset": 649384,
      "byteStride": 16,
      "name": "floatBufferViews",
      "target": 34962
    }
  ],
  "buffers": [
    {
      "byteLength": 827768,
      "uri": ".bin"
    }
  ],
  "images": [
    {
      "uri": "textures/BM_Cape_DS_0-1_MIC_baseColor.png"
    },
    {
      "uri": "textures/Batman_Masked_Sick_1_MIC_baseColor.png"
    },
    {
      "uri": "textures/Batman_Masked_Sick_1_MIC_normal.png"
    },
    {
      "uri": "textures/Batman_V3_Body_MIC_baseColor.png"
    },
    {
      "uri": "textures/Batman_V3_Body_MIC_normal.png"
    },
    {
      "uri": "textures/Batman_V3_Eyes_MIC_baseColor.png"
    },
    {
      "uri": "textures/Batman_V3_Head_MIC_baseColor.png"
    },
    {
      "uri": "textures/Batman_V3_Head_MIC_normal.png"
    }
  ],
  "materials": [
    {
      "doubleSided": true,
      "name": "BM_Cape_DS_0-1_MIC",
      "pbrMetallicRoughness": {
        "baseColorTexture": {
          "index": 0
        },
        "metallicFactor": 0.0
      }
    },
    {
      "doubleSided": true,
      "name": "Batman_Masked_Sick_1_MIC",
      "normalTexture": {
        "index": 2
      },
      "pbrMetallicRoughness": {
        "baseColorTexture": {
          "index": 1
        },
        "metallicFactor": 0.0
      }
    },
    {
      "doubleSided": true,
      "name": "Batman_V3_Body_MIC",
      "normalTexture": {
        "index": 4
      },
      "pbrMetallicRoughness": {
        "baseColorTexture": {
          "index": 3
        },
        "metallicFactor": 0.0
      }
    },
    {
      "doubleSided": true,
      "name": "Batman_V3_Eyes_MIC",
      "pbrMetallicRoughness": {
        "baseColorTexture": {
          "index": 5
        },
        "metallicFactor": 0.0
      }
    },
    {
      "doubleSided": true,
      "name": "Batman_V3_Head_MIC",
      "normalTexture": {
        "index": 7
      },
      "pbrMetallicRoughness": {
        "baseColorTexture": {
          "index": 6
        },
        "metallicFactor": 0.0
      }
    }
  ],
  "meshes": [
    {
      "name": "Object_0",
      "primitives": [
        {
          "attributes": {
            "NORMAL": 1,
            "POSITION": 0,
            "TEXCOORD_0": 2
          },
          "indices": 3,
          "material": 0,
          "mode": 4
        }
      ]
    },
    {
      "name": "Object_1",
      "primitives": [
        {
          "attributes": {
            "NORMAL": 5,
            "POSITION": 4,
            "TANGENT": 6,
            "TEXCOORD_0": 7
          },
          "indices": 8,
          "material": 1,
          "mode": 4
        }
      ]
    },
    {
      "name": "Object_2",
      "primitives": [
        {
          "attributes": {
            "NORMAL": 10,
            "POSITION": 9,
            "TANGENT": 11,
            "TEXCOORD_0": 12
          },
          "indices": 13,
          "material": 2,
          "mode": 4
        }
      ]
    },
    {
      "name": "Object_3",
      "primitives": [
        {
          "attributes": {
            "NORMAL": 15,
            "POSITION": 14,
            "TEXCOORD_0": 16
          },
          "indices": 17,
          "material": 3,
          "mode": 4
        }
      ]
    },
    {
      "name": "Object_4",
      "primitives": [
        {
          "attributes": {
            "NORMAL": 19,
            "POSITION": 18,
            "TANGENT": 20,
            "TEXCOORD_0": 21
          },
          "indices": 22,
          "material": 4,
          "mode": 4
        }
      ]
    }
  ],
  "nodes": [
    {
      "children": [
        1
      ],
      "matrix": [
        1.0,
        0.0,
        0.0,
        0.0,
        0.0,
        2.220446049250313e-16,
        -1.0,
        0.0,
        0.0,
        1.0,
        2.220446049250313e-16,
        0.0,
        0.0,
        0.0,
        0.0,
        1.0
      ],
      "name": "Sketchfab_model"
    },
    {
      "children": [
        2,
        3,
        4,
        5,
        6
      ],
      "name": "Batman.obj.cleaner.materialmerger.gles"
    },
    {
      "mesh": 0,
      "name": "Object_2"
    },
    {
      "mesh": 1,
      "name": "Object_3"
    },
    {
      "mesh": 2,
      "name": "Object_4"
    },
    {
      "mesh": 3,
      "name": "Object_5"
    },
    {
      "mesh": 4,
      "name": "Object_6"
    }
  ],
  "samplers": [
    {
      "magFilter": 9729,
      "minFilter": 9987,
      "wrapS": 10497,
      "wrapT": 10497
    }
  ],
  "scene": 0,
  "scenes": [
    {
      "name": "Sketchfab_Scene",
      "nodes": [
        0
      ]
    }
  ],
  "textures": [
    {
      "sampler": 0,
      "source": 0
    },
    {
      "sampler": 0,
      "source": 1
    },
    {
      "sampler": 0,
      "source": 2
    },
    {
      "sampler": 0,
      "source": 3
    },
    {
      "sampler": 0,
      "source": 4
    },
    {
      "sampler": 0,
      "source": 5
    },
    {
      "sampler": 0,
      "source": 6
    },
    {
      "sampler": 0,
      "source": 7
    }
  ]
}
